<svg width="24" height="9" viewBox="0 0 24 9" fill="none" xmlns="http://www.w3.org/2000/svg">
<path d="M2.64738 8.49675C1.93228 8.47018 1.34722 8.28717 0.88975 7.94725C0.802444 7.88232 0.594403 7.68762 0.524607 7.60551C0.339097 7.38734 0.212975 7.17501 0.128853 6.93943C-0.130004 6.21425 0.00322034 5.26266 0.509914 4.2183C0.94375 3.3242 1.61318 2.43743 2.78109 1.20926C2.95313 1.02854 3.46546 0.5 3.46877 0.5C3.46999 0.5 3.44207 0.545238 3.40693 0.600325C3.10326 1.07606 2.84342 1.63644 2.70187 2.12157C2.47448 2.9 2.50191 3.56803 2.78219 4.08603C2.97554 4.44289 3.30701 4.75199 3.67974 4.92286C4.33227 5.22189 5.28762 5.24663 6.45431 4.99524C6.53464 4.97784 10.515 3.98959 15.2995 2.7991C20.0841 1.60849 23.9994 0.635141 24 0.635943C24.0013 0.636974 12.8841 5.08629 7.11297 7.39455C6.19901 7.76001 5.9546 7.85231 5.52493 7.99341C4.42656 8.35416 3.44268 8.5263 2.64738 8.49675Z" fill="#101010"/>
</svg>
