<svg width="12" height="12" viewBox="0 0 12 12" fill="none" xmlns="http://www.w3.org/2000/svg">
<path d="M6.86495 1.75531L7.74495 3.51531C7.86495 3.76031 8.18495 3.99531 8.45495 4.04031L10.05 4.30531C11.07 4.47531 11.31 5.21531 10.575 5.94531L9.33495 7.18531C9.12495 7.39531 9.00995 7.80031 9.07495 8.09031L9.42995 9.62531C9.70995 10.8403 9.06495 11.3103 7.98995 10.6753L6.49495 9.79031C6.22495 9.63031 5.77995 9.63031 5.50495 9.79031L4.00995 10.6753C2.93995 11.3103 2.28995 10.8353 2.56995 9.62531L2.92495 8.09031C2.98995 7.80031 2.87495 7.39531 2.66495 7.18531L1.42495 5.94531C0.694954 5.21531 0.929955 4.47531 1.94995 4.30531L3.54495 4.04031C3.80995 3.99531 4.12995 3.76031 4.24995 3.51531L5.12995 1.75531C5.60995 0.800313 6.38995 0.800313 6.86495 1.75531Z" fill="#FCD240"/>
</svg>
